<?xml version="1.0" encoding="UTF-8"?>
<svg width="312px" height="323px" viewBox="0 0 312 323" version="1.1" xmlns="http://www.w3.org/2000/svg" xmlns:xlink="http://www.w3.org/1999/xlink">
    <!-- Generator: Sketch 52.6 (67491) - http://www.bohemiancoding.com/sketch -->
    <title>Group</title>
    <desc>Created with Sketch.</desc>
    <defs>
        <polygon id="path-1" points="0.418 0.681 311.437734 0.681 311.437734 340.94 0.418 340.94"></polygon>
    </defs>
    <g id="Page-1" stroke="none" stroke-width="1" fill="none" fill-rule="evenodd">
        <g id="Artboard" transform="translate(-555.000000, -133.000000)">
            <g id="Group" transform="translate(555.000000, 133.000000)">
                <g id="Group-29">
                    <mask id="mask-2" fill="white">
                        <use xlink:href="#path-1"></use>
                    </mask>
                    <g id="Clip-27"></g>
                    <path d="M149.092,296.004 C168.246,296.004 185.605,297.161 198.238,299.037 C209.713,300.742 220.271,302.869 231.957,303.865 C244.375,304.922 256.615,306.061 268.264,307.845 L309.559,317.452 C270.939,325.482 251.273,321.945 229.143,315.825 C218.273,312.82 213.939,311.224 203.16,313.197 C190.33,315.545 170.873,317.044 149.092,317.044 C110.463,317.044 79.135,312.333 79.135,306.524 C79.135,300.715 110.463,296.004 149.092,296.004" id="Fill-26" fill="#AAABA7" mask="url(#mask-2)"></path>
                    <path d="M196.41,42.359 C200.779,18.65 221.564,0.681 246.535,0.681 C274.68,0.681 297.508,23.509 297.508,51.654 C297.508,79.799 274.68,102.627 246.535,102.627 C244.232,102.627 241.965,102.47 239.742,102.174 C240.709,107.798 241.184,113.589 241.184,119.487 L241.184,159.335 C241.184,163.872 240.326,168.341 238.672,172.565 C234.533,183.138 226.137,190.958 216.115,195.478 L226.039,244.19 C229.697,242.68 233.766,242.279 237.371,244.361 C242.365,247.244 243.662,253.195 243.32,258.548 C243.297,258.92 243.264,259.291 243.225,259.665 L293.076,282.035 C294.107,282.494 294.885,283.288 295.338,284.234 L310.916,313.931 C312.088,316.174 311.219,318.944 308.975,320.115 C308.354,320.439 307.691,320.605 307.033,320.63 L273.377,321.999 C272.26,322.042 271.219,321.681 270.396,321.048 L226.279,289.191 C225.918,289.456 225.555,289.714 225.184,289.96 C220.738,292.921 214.891,294.772 209.922,291.903 C206.547,289.954 204.857,286.602 204.225,282.981 C202.982,282.729 201.779,282.396 200.637,281.984 L200.637,300.428 C200.637,306.123 195.977,310.783 190.281,310.783 L169.572,310.783 C163.877,310.783 159.219,306.123 159.219,300.428 L159.219,289.652 C155.654,290.001 152.229,290.156 149.092,290.156 C145.955,290.156 142.531,290 138.967,289.652 L138.967,300.428 C138.967,306.123 134.307,310.783 128.613,310.783 L107.904,310.783 C102.209,310.783 97.549,306.123 97.549,300.428 L97.549,281.999 C92.393,283.846 85.992,284.15 80.547,282.164 C67.326,281.984 67.326,268.054 69.723,256.287 L82.086,195.599 C71.943,191.101 63.43,183.235 59.254,172.565 C57.6,168.341 56.742,163.872 56.742,159.335 L56.742,119.487 C56.742,113.589 57.217,107.798 58.184,102.174 C55.961,102.47 53.693,102.627 51.391,102.627 C23.246,102.627 0.418,79.799 0.418,51.654 C0.418,23.509 23.246,0.681 51.391,0.681 C76.361,0.681 97.146,18.65 101.516,42.359 C116.016,34.701 132.57,30.926 148.941,30.864 L148.982,30.864 C165.355,30.926 181.908,34.701 196.41,42.359 Z" id="Fill-28" fill="#0A0B09" mask="url(#mask-2)"></path>
                </g>
                <path d="M211.482,197.297 L221.543,246.689 C216.725,250.068 212.678,255.078 209.768,260.119 C206.744,265.355 204.363,271.639 203.975,277.715 L203.965,277.893 C202.809,277.587 201.688,277.188 200.643,276.687 L200.637,276.684 L200.637,271.874 C202.076,270.045 203.297,268.051 204.256,265.873 C205.711,262.573 206.428,259.063 206.428,255.456 L206.428,203.913 C206.428,202.173 206.283,200.465 206.01,198.799 C207.861,198.4 209.689,197.9 211.482,197.297" id="Fill-30" fill="#AAABA7"></path>
                <path d="M164.121,289.059 L164.121,300.428 C164.121,303.417 166.584,305.879 169.572,305.879 L190.281,305.879 C193.27,305.879 195.732,303.417 195.732,300.428 L195.732,276.852 C187.371,283.752 175.4,287.419 164.121,289.059" id="Fill-31" fill="#FFFFFE"></path>
                <path d="M180.838,305.879 L190.281,305.879 C193.27,305.879 195.732,303.417 195.732,300.428 L195.732,276.854 C192,279.934 187.551,282.369 182.762,284.268 L182.762,300.842 C182.762,302.848 182.012,304.659 180.838,305.879" id="Fill-32" fill="#AAABA7"></path>
                <path d="M86.725,197.393 L74.527,257.266 C73.102,264.272 73.164,272.774 80.244,276.667 C82.4,277.853 84.887,278.439 87.332,278.587 C90.729,278.794 94.465,278.173 97.549,276.702 L97.549,271.875 C96.109,270.046 94.887,268.051 93.928,265.873 C92.475,262.573 91.758,259.063 91.758,255.456 L91.758,203.913 C91.758,202.193 91.898,200.502 92.166,198.854 C90.326,198.467 88.508,197.981 86.725,197.393" id="Fill-33" fill="#FFFFFE"></path>
                <path d="M102.453,276.854 L102.453,300.428 C102.453,303.417 104.916,305.879 107.904,305.879 L128.613,305.879 C131.6,305.879 134.063,303.417 134.063,300.428 L134.063,289.059 C122.787,287.418 110.814,283.753 102.453,276.854" id="Fill-34" fill="#FFFFFE"></path>
                <path d="M200.287,199.702 C200.514,201.073 200.637,202.481 200.637,203.913 L200.637,255.456 C200.637,293.999 97.549,293.999 97.549,255.456 L97.549,203.913 C97.549,202.489 97.67,201.089 97.895,199.725 C99.477,199.876 101.063,199.953 102.648,199.953 L195.277,199.953 C196.949,199.953 198.621,199.868 200.287,199.702" id="Fill-35" fill="#FFFFFE"></path>
                <path d="M200.287,199.702 C200.516,201.073 200.637,202.481 200.637,203.913 L200.637,255.456 C200.637,267.866 189.947,276.276 175.457,280.693 C178.361,277.933 180.836,274.537 182.244,270.414 C183.1,267.905 183.508,265.268 183.508,262.527 L183.508,199.953 L195.277,199.953 C196.949,199.953 198.621,199.868 200.287,199.702" id="Fill-36" fill="#AAABA7"></path>
                <path d="M100.85,119 C105.143,123.329 109.467,127.226 113.936,130.855 C118.404,127.226 122.732,123.329 127.025,119 L128.719,117.293 L138.793,127.182 L136.988,128.906 C133.262,132.461 129.357,135.963 125.326,139.358 C128.93,141.842 132.67,144.246 136.588,146.639 L138.793,147.985 L130.568,159.625 L128.635,158.425 C123.666,155.339 118.742,151.966 113.936,148.388 C109.131,151.966 104.211,155.339 99.24,158.425 L97.307,159.625 L89.082,147.985 L91.287,146.639 C95.205,144.246 98.943,141.842 102.547,139.358 C98.514,135.963 94.613,132.461 90.887,128.906 L89.082,127.182 L99.156,117.293 L100.85,119 Z M183.988,119.597 C192.605,119.597 199.594,128.867 199.594,140.298 C199.594,151.729 192.605,161 183.988,161 C175.371,161 168.383,151.729 168.383,140.298 C168.383,128.867 175.371,119.597 183.988,119.597 Z M67.402,176.61 C74.379,187.293 87.59,194.548 102.648,194.548 L195.277,194.548 C212.281,194.548 226.936,185.296 232.91,172.301 C231.023,173.395 228.869,174.306 226.496,175.059 L226.924,177.268 C227.363,177.447 227.676,177.752 227.756,178.142 C227.918,178.931 227.078,179.77 225.877,180.017 C224.678,180.264 223.574,179.826 223.412,179.037 C223.332,178.646 223.498,178.244 223.832,177.906 L223.445,175.913 C217.66,177.342 210.869,178.008 203.721,178.209 L203.451,179.483 C203.746,179.81 203.891,180.194 203.814,180.563 C203.646,181.352 202.543,181.784 201.344,181.532 C200.145,181.279 199.309,180.437 199.475,179.65 C199.561,179.24 199.902,178.925 200.377,178.753 L200.479,178.27 C194.951,178.323 189.27,178.131 183.723,177.827 L183.611,179.049 C183.984,179.342 184.199,179.722 184.168,180.119 C184.105,180.922 183.064,181.494 181.842,181.398 C180.621,181.301 179.684,180.574 179.746,179.771 C179.777,179.372 180.049,179.032 180.465,178.8 L180.57,177.643 C173.832,177.223 167.381,176.671 161.75,176.236 L161.633,177.666 C162.006,177.957 162.238,178.133 162.195,178.734 C162.152,179.333 161.1,180.115 159.879,180.027 C158.656,179.938 157.729,179.013 157.771,178.412 C157.816,177.813 158.07,177.671 158.484,177.438 L158.6,176 C154.742,175.722 151.367,175.529 148.689,175.516 C145.379,175.532 141.01,175.822 135.971,176.209 L136.188,177.994 C136.609,178.212 136.891,178.545 136.934,178.943 C137.021,179.743 136.105,180.499 134.887,180.632 C133.67,180.765 132.613,180.224 132.525,179.424 C132.48,179.028 132.686,178.642 133.049,178.337 L132.82,176.456 C125.607,177.029 117.297,177.712 108.867,178.058 L108.912,178.994 C109.316,179.245 109.57,179.6 109.582,179.999 C109.607,180.803 108.635,181.486 107.41,181.522 C106.186,181.558 105.174,180.937 105.15,180.132 C105.137,179.734 105.371,179.365 105.758,179.09 L105.713,178.17 C97.961,178.403 90.213,178.302 83.225,177.518 L82.945,178.918 C83.273,179.261 83.436,179.667 83.35,180.056 C83.176,180.843 82.066,181.267 80.869,181.003 C79.674,180.74 78.844,179.89 79.018,179.104 C79.104,178.714 79.42,178.413 79.861,178.241 L80.088,177.11 C75.891,176.485 72.035,175.576 68.699,174.295 L67.402,176.61 Z M65.211,172.717 C65.326,172.957 65.443,173.197 65.563,173.433 L65.795,173.022 C65.596,172.922 65.402,172.82 65.211,172.717 Z M148.963,36.269 C126.805,36.353 105.27,43.537 89.338,57.036 C69.844,73.553 62.148,96.275 62.148,119.488 L62.148,159.335 C62.148,162.991 62.799,166.519 64.004,169.841 C64.986,170.239 65.969,170.613 66.951,170.961 L67.76,169.518 C67.594,169.124 67.475,168.917 67.771,168.41 C68.066,167.905 69.365,167.654 70.422,168.273 C71.479,168.892 71.908,170.12 71.598,170.652 C71.287,171.183 70.945,171.21 70.428,171.215 L70.006,171.968 C73.543,173.045 77.086,173.825 80.637,174.369 L81.113,172 C80.834,171.676 80.656,171.516 80.781,170.944 C80.908,170.37 82.064,169.733 83.262,169.996 C84.457,170.26 85.246,171.294 85.113,171.896 C84.98,172.498 84.666,172.628 84.174,172.793 L83.773,174.791 C90.982,175.625 98.232,175.567 105.564,175.128 L105.449,172.732 C105.1,172.486 104.887,172.373 104.869,171.786 C104.852,171.202 105.818,170.3 107.043,170.264 C108.268,170.227 109.285,171.039 109.303,171.655 C109.322,172.271 109.047,172.473 108.611,172.753 L108.715,174.918 C116.492,174.351 124.365,173.442 132.375,172.796 L132.162,171.049 C131.795,170.83 131.551,170.518 131.512,170.153 C131.424,169.352 132.34,168.596 133.557,168.463 C134.775,168.33 135.832,168.87 135.92,169.671 C135.967,170.095 135.73,170.508 135.316,170.822 L135.527,172.557 C139.447,172.282 143.4,172.086 147.395,172.044 L147.395,165.475 C142.156,164.973 138.131,161.995 138.131,158.399 C138.131,154.452 142.982,151.25 148.963,151.25 C154.943,151.25 159.795,154.452 159.795,158.399 C159.795,161.995 155.768,164.973 150.531,165.475 L150.531,172.052 C153.338,172.091 156.125,172.203 158.895,172.366 L159.016,170.868 C158.592,170.569 158.34,170.166 158.371,169.74 C158.428,168.937 159.467,168.358 160.688,168.447 C161.908,168.535 162.852,169.257 162.793,170.061 C162.768,170.428 162.535,170.749 162.176,170.98 L162.047,172.572 C168.406,173.023 174.676,173.686 180.877,174.261 L181.119,171.605 C180.697,171.304 180.447,170.899 180.48,170.473 C180.545,169.67 181.586,169.098 182.807,169.194 C184.027,169.29 184.967,170.019 184.902,170.822 C184.873,171.189 184.639,171.508 184.277,171.738 L184.023,174.544 C189.758,175.043 195.438,175.421 201.078,175.442 L201.457,173.653 C201.09,173.304 200.9,172.877 200.988,172.466 C201.154,171.678 202.26,171.245 203.457,171.495 C204.086,171.627 204.615,171.924 204.951,172.289 L204.975,172.294 L204.971,172.31 C205.262,172.636 205.404,173.013 205.326,173.38 C205.25,173.748 204.967,174.04 204.566,174.22 L204.314,175.411 C210.549,175.271 216.742,174.632 222.914,173.17 L222.457,170.812 C221.969,170.64 221.615,170.321 221.529,169.902 C221.367,169.113 222.207,168.274 223.408,168.028 C224.607,167.78 225.711,168.218 225.873,169.007 C225.947,169.368 225.813,169.739 225.529,170.06 L225.977,172.377 C228.658,171.619 231.336,170.694 234.014,169.578 C235.158,166.333 235.777,162.894 235.777,159.335 L235.777,119.488 C235.777,96.275 228.082,73.553 208.586,57.036 C192.654,43.537 171.121,36.353 148.963,36.269 Z" id="Fill-37" fill="#FFFFFE"></path>
                <path d="M215.617,177.336 C208.525,187.62 195.574,194.548 180.861,194.548 L195.277,194.548 C212.281,194.548 226.936,185.296 232.91,172.301 C231.023,173.394 228.869,174.306 226.496,175.059 L226.924,177.268 C227.363,177.447 227.676,177.752 227.756,178.142 C227.918,178.931 227.078,179.77 225.877,180.017 C224.678,180.264 223.574,179.826 223.412,179.037 C223.332,178.646 223.498,178.244 223.832,177.906 L223.445,175.913 C221,176.518 218.373,176.983 215.617,177.336 Z M148.963,36.269 C146.551,36.278 144.145,36.371 141.754,36.547 C161.326,37.992 179.973,45.007 194.17,57.036 C213.664,73.552 221.359,96.274 221.359,119.487 L221.359,159.335 C221.359,164.655 219.98,169.709 217.52,174.244 C219.318,173.949 221.119,173.596 222.914,173.17 L222.457,170.812 C221.969,170.64 221.615,170.321 221.529,169.902 C221.367,169.113 222.207,168.274 223.408,168.028 C224.607,167.78 225.711,168.218 225.873,169.007 C225.947,169.368 225.813,169.739 225.529,170.06 L225.977,172.377 C228.658,171.619 231.336,170.694 234.014,169.577 C235.158,166.332 235.777,162.894 235.777,159.335 L235.777,119.487 C235.777,96.274 228.082,73.552 208.586,57.036 C192.654,43.537 171.121,36.353 148.963,36.269 Z" id="Fill-38" fill="#AAABA7"></path>
                <path d="M123.383,140.98 C127.121,143.56 131.066,146.097 135.33,148.7 L129.908,156.372 C125.26,153.485 120.572,150.273 115.965,146.86 C118.475,144.949 120.951,142.985 123.383,140.98 Z M128.742,120.702 C117.441,132.094 106.77,140.016 92.545,148.7 L97.967,156.372 C110.994,148.283 124.32,137.655 135.32,127.158 L128.742,120.702 Z M99.133,120.702 C103.43,125.033 107.635,128.861 111.979,132.421 C109.574,134.315 107.123,136.139 104.611,137.916 C100.389,134.386 96.336,130.765 92.555,127.158 L99.133,120.702 Z" id="Fill-39" fill="#FFFFFE"></path>
                <path d="M173.316,204.222 C173.045,208.101 171.988,214.967 168.375,223.04 L171.523,225.878 L167.504,224.941 C165.545,229.108 163.137,233.586 160.344,238.204 L163.014,241.524 L158.816,240.68 C157.914,242.116 156.977,243.563 156.004,245.015 C155.035,246.459 154.061,247.869 153.08,249.244 L158.045,254.869 L151.221,251.805 C149.588,254.006 147.953,256.101 146.332,258.074 L149.932,262.713 L144.311,260.476 C142.361,262.739 140.445,264.811 138.594,266.663 L140.508,271.271 L136.246,268.924 C131.814,273.028 127.859,275.716 124.869,276.547 C129.1,273.077 133.807,268.374 138.668,262.729 L135.375,258.343 L140.637,260.402 C142.303,258.398 143.98,256.29 145.66,254.088 L143.252,250.657 L147.402,251.769 C149.203,249.338 151,246.803 152.775,244.179 L148.949,240.215 L154.445,241.679 C156.592,238.413 158.6,235.176 160.455,232.001 L157.705,228.736 L161.934,229.428 C164.24,225.345 166.281,221.387 168.033,217.636 L164.721,215.42 C164.721,215.42 167.461,216.277 168.578,216.453 C170.596,212.021 172.191,207.898 173.316,204.222" id="Fill-40" fill="#8F918D"></path>
                <path d="M234.957,248.544 C237.498,250.012 238.668,253.325 238.529,257.558 L231.529,254.417 C229.768,253.522 227.559,253.843 226.127,255.349 C223.375,258.23 220.82,261.537 218.682,265.193 C218.627,265.274 218.576,265.358 218.525,265.444 C216.541,268.879 214.941,272.614 213.9,276.575 C213.406,278.369 214.045,280.361 215.645,281.511 L222.123,286.189 C218.457,288.521 214.924,289.213 212.338,287.719 C206.984,284.628 207.707,273.351 213.951,262.535 C220.197,251.718 229.604,245.453 234.957,248.544" id="Fill-41" fill="#AAABA7"></path>
                <path d="M233.572,250.942 C234.033,251.208 234.441,251.543 234.799,251.941 C230.051,249.675 222.061,255.133 216.711,264.399 C211.77,272.96 210.77,281.849 214.068,285.5 C213.951,285.445 213.836,285.387 213.723,285.322 C209.023,282.61 209.658,272.712 215.139,263.219 C220.619,253.727 228.873,248.229 233.572,250.942" id="Fill-42" fill="#FFFFFE"></path>
                <path d="M306.854,316.052 L273.197,317.415 L218.322,277.79 C219.027,275.088 220.033,272.494 221.266,270.035 L284.102,302.034 L223.996,265.33 C225.633,262.862 227.48,260.576 229.453,258.512 L291.207,286.223 L306.854,316.052" id="Fill-43" fill="#E3E3DE"></path>
                <path d="M284.102,302.034 L223.996,265.33 C224.654,264.336 225.35,263.373 226.072,262.441 L226.078,262.446 L284.102,302.034 Z M306.854,316.052 L273.197,317.415 L218.322,277.79 L274.512,311.636 L306.854,316.052 Z" id="Fill-44" fill="#AAABA7"></path>
                <path d="M281.582,303.461 L222.402,273.326 C221.914,274.47 221.48,275.637 221.111,276.825 L281.582,303.461 Z M302.941,313.792 L289.455,288.084 L230.049,261.428 L283.938,289.923 L302.941,313.792 Z" id="Fill-45" fill="#FFFFFE"></path>
                <path d="M148.963,153.665 C153.609,153.665 157.379,155.785 157.379,158.399 C157.379,161.013 153.609,163.134 148.963,163.134 C144.314,163.134 140.547,161.013 140.547,158.399 C140.547,155.785 144.314,153.665 148.963,153.665" id="Fill-46" fill="#D63E2B"></path>
                <path d="M153.666,155.648 C155.18,156.124 156.191,157.2 155.924,158.052 C155.656,158.904 154.211,159.209 152.695,158.734 C151.182,158.258 150.17,157.181 150.438,156.329 C150.705,155.478 152.15,155.172 153.666,155.648" id="Fill-47" fill="#FFFFFE"></path>
                <path d="M246.535,6.418 C271.514,6.418 291.771,26.675 291.771,51.654 C291.771,76.632 271.514,96.89 246.535,96.89 C243.797,96.89 241.117,96.645 238.514,96.179 C234.512,79.565 225.916,64.633 212.082,52.912 C208.814,50.144 205.352,47.641 201.732,45.402 C204.777,23.381 223.678,6.418 246.535,6.418" id="Fill-48" fill="#FFFFFE"></path>
                <path d="M246.535,6.418 C271.514,6.418 291.771,26.675 291.771,51.654 C291.771,71.455 279.037,88.286 261.316,94.414 C273.344,86.282 281.252,72.521 281.252,56.914 C281.252,31.935 260.994,11.678 236.016,11.678 C230.84,11.678 225.871,12.549 221.238,14.15 C228.461,9.268 237.166,6.418 246.535,6.418" id="Fill-49" fill="#AAABA7"></path>
                <path d="M51.391,6.418 C74.248,6.418 93.148,23.381 96.193,45.402 C92.572,47.641 89.111,50.144 85.844,52.912 C72.01,64.633 63.414,79.565 59.414,96.179 C56.809,96.645 54.129,96.89 51.391,96.89 C26.412,96.89 6.154,76.632 6.154,51.654 C6.154,26.675 26.412,6.418 51.391,6.418" id="Fill-50" fill="#FFFFFE"></path>
            </g>
        </g>
    </g>
</svg>